<svg xmlns="http://www.w3.org/2000/svg" width="38" height="38">
    <path fill-rule="evenodd" fill="#DDE7F8" d="M18.885.403C8.589.403.241 8.751.241 19.047c0 10.296 8.348 18.645 18.644 18.645 10.297 0 18.645-8.349 18.645-18.645S29.182.403 18.885.403zm3.881 28.896c-.958.377-1.723.666-2.296.864-.571.199-1.236.299-1.992.299-1.162 0-2.066-.286-2.71-.85-.644-.568-.964-1.286-.964-2.158 0-.34.023-.688.07-1.041.05-.353.127-.751.232-1.197l1.202-4.243c.106-.41.197-.797.27-1.156a5.16 5.16 0 0 0 .107-.999c0-.54-.112-.919-.335-1.131-.226-.214-.65-.318-1.283-.318-.31 0-.628.045-.955.142-.324.099-.605.189-.835.278l.317-1.307a29.866 29.866 0 0 1 2.258-.823c.718-.23 1.396-.344 2.036-.344 1.154 0 2.044.281 2.671.837.623.557.937 1.282.937 2.172 0 .185-.021.51-.064.974a6.653 6.653 0 0 1-.241 1.281l-1.195 4.23c-.097.34-.184.727-.263 1.16-.078.435-.116.766-.116.991 0 .56.125.944.378 1.149.25.203.687.306 1.304.306.293 0 .62-.052.99-.155.366-.1.631-.191.798-.268l-.321 1.307zm-.211-17.17c-.556.517-1.228.776-2.013.776a2.887 2.887 0 0 1-2.02-.776c-.559-.518-.841-1.148-.841-1.884 0-.734.284-1.365.841-1.887a2.864 2.864 0 0 1 2.02-.785c.785 0 1.457.261 2.013.785.557.522.837 1.153.837 1.887 0 .738-.28 1.366-.837 1.884z"/>
</svg>
