<?xml version="1.0" encoding="utf-8"?>
<!-- Generator: Adobe Illustrator 26.3.1, SVG Export Plug-In . SVG Version: 6.00 Build 0)  -->
<svg version="1.1" id="Layer_1" xmlns="http://www.w3.org/2000/svg" xmlns:xlink="http://www.w3.org/1999/xlink" x="0px" y="0px"
	 viewBox="0 0 32.7 32.7" style="enable-background:new 0 0 32.7 32.7;" xml:space="preserve">
<style type="text/css">
	.st0{fill-rule:evenodd;clip-rule:evenodd;fill:#FFFFFF;}
</style>
<path class="st0" d="M32.2,2.4c-3.8,2.8-7,6.3-10.2,9.7c-0.8,0.9-1.7,1.6-2.6,2.5c0.7,0.9,1.3,1.6,1.9,2.3c1.1,1.5,2.1,3.1,2.8,4.9
	c0.2,0.5,0.2,1-0.2,1.4c-0.4,0.3-1,0.2-1.4-0.2c-1.8-1.7-3.6-3.5-5.3-5.2c-0.1-0.1-0.2-0.2-0.4-0.4c-0.4,0.4-0.9,0.7-1.3,1.1
	c-1.6,1.3-3.2,2.7-4.9,4c-0.7,0.6-1.1,0.6-1.6,0.2c-0.5-0.4-0.5-0.9,0.1-1.7c1.5-2,3.1-4,4.6-6.1l0.2-0.3c-1.1-1-2.2-2-3.3-3.1
	c-0.6-0.5-1.2-1.1-1.8-1.6C8.5,9.7,8.3,9.2,8.6,8.6C9,8.1,9.5,8.2,10,8.3c2.4,0.7,4.4,2,6.4,3.5l0.2,0.2c1.8-1.5,3.5-3,5.3-4.4
	c3-2.2,6-4.2,9-6.3C31.2,1.2,31.4,1,31.7,1c0.3,0,0.7,0.1,0.8,0.3c0.1,0.2,0,0.6,0,0.9C32.5,2.3,32.3,2.4,32.2,2.4L32.2,2.4z
	 M22,2.7c-1.7-0.7-3.4-1-5.3-1.1C9.7,1.5,3.7,6.1,2,13c-2.1,8.4,3.9,17,12.6,18c7.7,0.9,14.6-4,16.2-11.6c0.6-3,0.4-5.9-0.8-8.7
	c-0.3-0.6,0-1.1,0.4-1.3c0.5-0.2,0.9,0.1,1.1,0.7c0.8,2,1.3,4.1,1.3,6.3c-0.1,5.2-2.1,9.5-6.1,12.7c-8.3,6.6-20.6,3.8-25-5.8
	C-3,13.3,3,2,13.8,0.2c2.9-0.5,5.8-0.2,8.6,1c0.3,0.1,0.6,0.3,0.7,0.6c0.1,0.2,0,0.7-0.2,0.8C22.7,2.8,22.2,2.8,22,2.7L22,2.7z"/>
</svg>
