<?xml version="1.0" encoding="utf-8"?>
<!-- Generator: Adobe Illustrator 26.3.1, SVG Export Plug-In . SVG Version: 6.00 Build 0)  -->
<svg version="1.1" id="Layer_1" xmlns="http://www.w3.org/2000/svg" xmlns:xlink="http://www.w3.org/1999/xlink" x="0px" y="0px"
	 viewBox="0 0 35.7 34.5" style="enable-background:new 0 0 35.7 34.5;" xml:space="preserve">
<style type="text/css">
	.st0{fill-rule:evenodd;clip-rule:evenodd;fill:#FFFFFF;}
</style>
<path class="st0" d="M32.1,14.8c1.1,8.2-2.2,14.8-8.9,18c-6.4,3.1-13.9,1.7-18.8-3.5c-4.8-5-5.7-12.7-2.4-18.9
	C5.6,3.6,14,0.2,21.3,2.7c3.9-3.6,8.5-3.5,12-0.3C36.6,5.5,36.7,11.4,32.1,14.8z M3.9,9.6c-4,5.8-3.5,13.7,1.3,18.9
	c5,5.3,12.8,6.3,18.9,2.6c5.3-3.3,8-10.5,6.8-15.5c-3.6,1.3-6.9,0.8-9.5-2.2c-2.5-2.9-2.5-6.1-0.9-9.4C15.1,1.6,7.6,4.3,3.9,9.6
	L3.9,9.6z M27.5,1.1c-3.8,0-6.9,3.1-6.9,6.9c0,3.8,3.1,7,6.8,7c3.8,0,7-3.2,7-7C34.4,4.2,31.2,1.1,27.5,1.1z M27.6,11.3
	c-0.4,0-0.6-0.3-0.6-0.6c0,0,0,0,0,0c0-0.4,0.3-0.6,0.6-0.7s0.6,0.3,0.7,0.6c0,0,0,0,0,0.1C28.2,11.1,27.9,11.3,27.6,11.3z
	 M27.6,8.5h-0.1c-0.3,0-0.6-0.3-0.6-0.6c0,0,0,0,0,0V3.6c0-0.3,0.3-0.6,0.6-0.6h0.1c0.3,0,0.6,0.3,0.6,0.6v4.3
	C28.2,8.2,27.9,8.5,27.6,8.5C27.6,8.5,27.6,8.5,27.6,8.5z M10,20c2,0,4,0,6.2,0c0-3.3,0-6.5,0-9.7c0-0.6-0.2-1.3,1-1.3v12.1H9.1
	C8.8,20.1,9.3,20,10,20z"/>
</svg>
