<?xml version="1.0" encoding="utf-8"?>
<!-- Generator: Adobe Illustrator 26.3.1, SVG Export Plug-In . SVG Version: 6.00 Build 0)  -->
<svg version="1.1" id="Layer_1" xmlns="http://www.w3.org/2000/svg" xmlns:xlink="http://www.w3.org/1999/xlink" x="0px" y="0px"
	 viewBox="0 0 36 38.7" style="enable-background:new 0 0 36 38.7;" xml:space="preserve">
<style type="text/css">
	.st0{fill-rule:evenodd;clip-rule:evenodd;fill:#27BA31;}
</style>
<path class="st0" d="M35.7,1.4c-4.2,5.8-7.5,12.1-10.8,18.5c-1.5,2.9-3.2,5.7-4.9,8.4c-0.6,1-1.5,1.8-3,1.8
	c-0.7-0.1-1.5-0.5-2.2-1.2c-1.2-1.2-2-2.7-2.8-4.3c-1.3-2.7-2.3-5.5-3-8.5C9,16.1,9,16,9,15.9c0.1-0.3,0.2-0.8,0.4-0.9
	c0.2-0.1,0.7,0.1,0.9,0.3c0.6,0.7,1.1,1.4,1.6,2.1c1.5,2.1,2.9,4.3,4.4,6.5c0.5,0.8,0.7,0.8,1.2,0c3.5-5.7,7.1-11.2,11.1-16.5
	c1.7-2.3,3.7-4.4,5.5-6.6c0.1-0.1,0.2-0.2,0.4-0.4c0.4-0.4,0.8-0.6,1.2-0.2C36.2,0.6,36,1,35.7,1.4L35.7,1.4z M23.5,6.3
	C21.4,5.5,19.2,5,17,5.1c-7.6,0.1-14.3,6.3-15.2,14c-0.8,7,2.6,13.2,8.8,16.3c6.7,3.4,15.2,1.2,19.5-5c3.3-4.8,3.9-9.9,1.9-15.4
	c0-0.1-0.1-0.2-0.1-0.2c-0.2-0.7-0.1-1.1,0.4-1.3c0.5-0.2,0.9,0,1.1,0.6c0.8,2,1.3,4,1.3,6.2c0,0.2,0,0.4,0,0.7
	c0.1,8.9-6.3,16.3-15,17.5c-9.4,1.3-18.1-5.3-19.5-14.8C-1.3,14.2,5.3,5,14.7,3.6c3.1-0.5,6-0.2,8.9,1c0.2,0.1,0.3,0.1,0.5,0.2
	c0.5,0.2,0.7,0.6,0.5,1.1C24.5,6.3,24,6.5,23.5,6.3L23.5,6.3z"/>
</svg>
