<?xml version="1.0" encoding="utf-8"?>
<!-- Generator: Adobe Illustrator 26.4.1, SVG Export Plug-In . SVG Version: 6.00 Build 0)  -->
<svg version="1.1" id="Layer_1" xmlns="http://www.w3.org/2000/svg" xmlns:xlink="http://www.w3.org/1999/xlink" x="0px" y="0px"
	 viewBox="0 0 20.6 20.6" style="enable-background:new 0 0 20.6 20.6;" xml:space="preserve">
<style type="text/css">
	.st0{fill-rule:evenodd;clip-rule:evenodd;fill:#53857C;}
</style>
<path class="st0" d="M14.1,10.3l5.7-5.7c0,0,0,0,0,0c1-1.1,1-2.7,0-3.8c-1.1-1-2.8-1-3.8,0l-5.7,5.7L4.6,0.8c-1.1-1.1-2.8-1.1-3.8,0
	s-1.1,2.8,0,3.8l5.7,5.7L0.8,16c-1.1,1.1-1.1,2.8,0,3.8s2.8,1.1,3.8,0l5.7-5.7l5.7,5.7c1.1,1,2.8,1,3.8,0c0,0,0,0,0,0
	c1-1.1,1-2.7,0-3.8L14.1,10.3z"/>
</svg>
