<?xml version="1.0" encoding="utf-8"?>
<!-- Generator: Adobe Illustrator 26.3.1, SVG Export Plug-In . SVG Version: 6.00 Build 0)  -->
<svg version="1.1" id="Layer_1" xmlns="http://www.w3.org/2000/svg" xmlns:xlink="http://www.w3.org/1999/xlink" x="0px" y="0px"
	 viewBox="0 0 25.2 25.2" style="enable-background:new 0 0 25.2 25.2;" xml:space="preserve">
<style type="text/css">
	.st0{fill-rule:evenodd;clip-rule:evenodd;fill:#FFFFFF;}
</style>
<path class="st0" d="M18.3,12.6L24,6.9v0c1.6-1.6,1.6-4.1,0-5.7s-4.1-1.6-5.7,0l-5.7,5.7L6.9,1.2c-1.6-1.6-4.1-1.6-5.7,0
	s-1.6,4.1,0,5.7l5.7,5.7l-5.7,5.7c-1.6,1.6-1.6,4.1,0,5.7s4.1,1.6,5.7,0l5.7-5.7l5.7,5.7c1.6,1.6,4.1,1.6,5.7,0s1.6-4.1,0-5.7
	L18.3,12.6z"/>
</svg>
