<svg xmlns="http://www.w3.org/2000/svg" width="20" height="12" viewBox="0 0 20 12">
  <defs>
    <style>
      .cls-1 {
        fill: #fff;
        stroke: #fff;
        stroke-width: 3px;
        fill-rule: evenodd;
      }
    </style>
  </defs>
  <path id="Forma_1" data-name="Forma 1" class="cls-1" d="M1232.97,2858.81l7.83-7.71a0.649,0.649,0,0,0-.01-0.92,0.661,0.661,0,0,0-.93.01l-7.36,7.25-7.36-7.25a0.673,0.673,0,0,0-.94-0.01,0.7,0.7,0,0,0-.19.46,0.678,0.678,0,0,0,.19.46l7.83,7.71a0.641,0.641,0,0,0,.47.19A0.657,0.657,0,0,0,1232.97,2858.81Z" transform="translate(-1222.5 -2848.5)"/>
</svg>
